<svg width="161" height="32" viewBox="0 0 161 32" fill="none" xmlns="http://www.w3.org/2000/svg">
<mask id="path-1-inside-1_6_30" fill="white">
<path d="M0 8C0 3.58172 3.58172 0 8 0H24C28.4183 0 32 3.58172 32 8V24C32 28.4183 28.4183 32 24 32H8C3.58172 32 0 28.4183 0 24V8Z"/>
</mask>
<path d="M0 8C0 3.58172 3.58172 0 8 0H24C28.4183 0 32 3.58172 32 8V24C32 28.4183 28.4183 32 24 32H8C3.58172 32 0 28.4183 0 24V8Z" fill="#F8FAFC"/>
<path d="M8 0V1H24V0V-1H8V0ZM32 8H31V24H32H33V8H32ZM24 32V31H8V32V33H24V32ZM0 24H1V8H0H-1V24H0ZM8 32V31C4.13401 31 1 27.866 1 24H0H-1C-1 28.9706 3.02944 33 8 33V32ZM32 24H31C31 27.866 27.866 31 24 31V32V33C28.9706 33 33 28.9706 33 24H32ZM24 0V1C27.866 1 31 4.13401 31 8H32H33C33 3.02944 28.9706 -1 24 -1V0ZM8 0V-1C3.02944 -1 -1 3.02944 -1 8H0H1C1 4.13401 4.13401 1 8 1V0Z" fill="black" fill-opacity="0.1" mask="url(#path-1-inside-1_6_30)"/>
<path d="M15.4166 19.5C17.6717 19.5 19.4999 17.6718 19.4999 15.4167C19.4999 13.1615 17.6717 11.3333 15.4166 11.3333C13.1614 11.3333 11.3333 13.1615 11.3333 15.4167C11.3333 17.6718 13.1614 19.5 15.4166 19.5Z" stroke="#90A1B9" stroke-width="0.875"/>
<path d="M18.625 18.625L21.25 21.25" stroke="#90A1B9" stroke-width="0.875" stroke-linecap="round"/>
<mask id="path-5-inside-2_6_30" fill="white">
<path d="M38 8C38 3.58172 41.5817 0 46 0H62C66.4183 0 70 3.58172 70 8V24C70 28.4183 66.4183 32 62 32H46C41.5817 32 38 28.4183 38 24V8Z"/>
</mask>
<path d="M38 8C38 3.58172 41.5817 0 46 0H62C66.4183 0 70 3.58172 70 8V24C70 28.4183 66.4183 32 62 32H46C41.5817 32 38 28.4183 38 24V8Z" fill="#F8FAFC"/>
<path d="M46 0V1H62V0V-1H46V0ZM70 8H69V24H70H71V8H70ZM62 32V31H46V32V33H62V32ZM38 24H39V8H38H37V24H38ZM46 32V31C42.134 31 39 27.866 39 24H38H37C37 28.9706 41.0294 33 46 33V32ZM70 24H69C69 27.866 65.866 31 62 31V32V33C66.9706 33 71 28.9706 71 24H70ZM62 0V1C65.866 1 69 4.13401 69 8H70H71C71 3.02944 66.9706 -1 62 -1V0ZM46 0V-1C41.0294 -1 37 3.02944 37 8H38H39C39 4.13401 42.134 1 46 1V0Z" fill="black" fill-opacity="0.1" mask="url(#path-5-inside-2_6_30)"/>
<g clip-path="url(#clip0_6_30)">
<path d="M50.5001 14.25V10.1667H57.5001V14.25M50.5001 19.5H49.3334C49.024 19.5 48.7272 19.3771 48.5085 19.1583C48.2897 18.9395 48.1667 18.6428 48.1667 18.3333V15.4167C48.1667 15.1072 48.2897 14.8105 48.5085 14.5917C48.7272 14.3729 49.024 14.25 49.3334 14.25H58.6667C58.9762 14.25 59.2729 14.3729 59.4917 14.5917C59.7105 14.8105 59.8334 15.1072 59.8334 15.4167V18.3333C59.8334 18.6428 59.7105 18.9395 59.4917 19.1583C59.2729 19.3771 58.9762 19.5 58.6667 19.5H57.5001" stroke="#90A1B9" stroke-width="0.875" stroke-linejoin="round"/>
<path d="M57.5 17.1667H50.5V21.8333H57.5V17.1667Z" stroke="#90A1B9" stroke-width="0.875" stroke-linejoin="round"/>
</g>
<mask id="path-9-inside-3_6_30" fill="white">
<path d="M76 8C76 3.58172 79.5817 0 84 0H100C104.418 0 108 3.58172 108 8V24C108 28.4183 104.418 32 100 32H84C79.5817 32 76 28.4183 76 24V8Z"/>
</mask>
<path d="M76 8C76 3.58172 79.5817 0 84 0H100C104.418 0 108 3.58172 108 8V24C108 28.4183 104.418 32 100 32H84C79.5817 32 76 28.4183 76 24V8Z" fill="#F8FAFC"/>
<path d="M84 0V1H100V0V-1H84V0ZM108 8H107V24H108H109V8H108ZM100 32V31H84V32V33H100V32ZM76 24H77V8H76H75V24H76ZM84 32V31C80.134 31 77 27.866 77 24H76H75C75 28.9706 79.0294 33 84 33V32ZM108 24H107C107 27.866 103.866 31 100 31V32V33C104.971 33 109 28.9706 109 24H108ZM100 0V1C103.866 1 107 4.13401 107 8H108H109C109 3.02944 104.971 -1 100 -1V0ZM84 0V-1C79.0294 -1 75 3.02944 75 8H76H77C77 4.13401 80.134 1 84 1V0Z" fill="black" fill-opacity="0.1" mask="url(#path-9-inside-3_6_30)"/>
<path d="M91.9999 10.75V18.3333M94.9166 15.4167L91.9999 18.3333L89.0833 15.4167" stroke="#90A1B9" stroke-width="0.875" stroke-linecap="round" stroke-linejoin="round"/>
<path d="M87.9167 21.25H96.0834" stroke="#90A1B9" stroke-width="0.875" stroke-linecap="round"/>
<rect width="1" height="16" transform="translate(118 8)" fill="black" fill-opacity="0.1"/>
<mask id="path-13-inside-4_6_30" fill="white">
<path d="M129 8C129 3.58172 132.582 0 137 0H153C157.418 0 161 3.58172 161 8V24C161 28.4183 157.418 32 153 32H137C132.582 32 129 28.4183 129 24V8Z"/>
</mask>
<path d="M129 8C129 3.58172 132.582 0 137 0H153C157.418 0 161 3.58172 161 8V24C161 28.4183 157.418 32 153 32H137C132.582 32 129 28.4183 129 24V8Z" fill="#F0FDFA"/>
<path d="M137 0V1H153V0V-1H137V0ZM161 8H160V24H161H162V8H161ZM153 32V31H137V32V33H153V32ZM129 24H130V8H129H128V24H129ZM137 32V31C133.134 31 130 27.866 130 24H129H128C128 28.9706 132.029 33 137 33V32ZM161 24H160C160 27.866 156.866 31 153 31V32V33C157.971 33 162 28.9706 162 24H161ZM153 0V1C156.866 1 160 4.13401 160 8H161H162C162 3.02944 157.971 -1 153 -1V0ZM137 0V-1C132.029 -1 128 3.02944 128 8H129H130C130 4.13401 133.134 1 137 1V0Z" fill="#009689" fill-opacity="0.4" mask="url(#path-13-inside-4_6_30)"/>
<g clip-path="url(#clip1_6_30)">
<path d="M139.167 18.9167L145 21.8333L150.833 18.9167M139.167 16L145 18.9167L150.833 16M145 10.1667L139.167 13.0833L145 16L150.833 13.0833L145 10.1667Z" stroke="#009689" stroke-width="0.875" stroke-linecap="round" stroke-linejoin="round"/>
</g>
<defs>
<clipPath id="clip0_6_30">
<rect width="14" height="14" fill="white" transform="translate(47 9)"/>
</clipPath>
<clipPath id="clip1_6_30">
<rect width="14" height="14" fill="white" transform="translate(138 9)"/>
</clipPath>
</defs>
</svg>
