<?xml version="1.0" encoding="UTF-8"?>
<!DOCTYPE svg PUBLIC "-//W3C//DTD SVG 1.1//EN" "http://www.w3.org/Graphics/SVG/1.1/DTD/svg11.dtd">
<!-- Creator: CorelDRAW 2020 (64-Bit) -->
<svg xmlns="http://www.w3.org/2000/svg" xml:space="preserve" width="469px" height="400px" version="1.1" style="shape-rendering:geometricPrecision; text-rendering:geometricPrecision; image-rendering:optimizeQuality; fill-rule:evenodd; clip-rule:evenodd"
viewBox="0 0 469 399.71"
 xmlns:xlink="http://www.w3.org/1999/xlink"
 xmlns:xodm="http://www.corel.com/coreldraw/odm/2003">
 <defs>
  <style type="text/css">
   <![CDATA[
    .fil1 {fill:#009689}
    .fil0 {fill:white;fill-rule:nonzero;fill-opacity:0.039216}
   ]]>
  </style>
 </defs>
 <g id="Слой_x0020_1">
  <metadata id="CorelCorpID_0Corel-Layer"/>
  <path id="niac.svg" class="fil0" d="M-915.71 -710.54l-106.64 105.89 35.95 35.9 32.29 -32.86 -18.89 -19.47c-1.82,-1.83 -2.43,-4.87 0.61,-7.91l20.11 -20.08c-3.65,-11.57 9.75,-20.7 18.28,-13.39 8.53,7.3 4.27,21.29 -9.14,20.69l-17.67 17.04 14.63 15.21 23.76 -23.73c-3.65,-12.17 10.36,-19.47 18.28,-13.39 10.97,9.13 0,23.73 -9.14,20.69l-51.79 51.72 43.26 43.22 54.24 -54.17c-2.44,-15.82 13.12,-18.56 19.5,-12.78 6.7,6.09 3.65,23.13 -10.97,20.09l-58.5 57.8c-2.44,2.44 -5.49,3.05 -7.92,0.61l-47.54 -47.46 -10.35 10.34c-2.44,2.44 -6.1,1.22 -7.93,-0.61l-43.87 -43.81c-1.22,-1.22 -1.83,-4.26 0,-6.09l115.78 -116.22c1.82,-1.83 5.48,-1.83 7.31,0l117 117.44c3.05,3.05 2.44,6.7 0,8.52l-49.97 49.9c2.44,14 -11.58,18.26 -18.89,12.18 -7.92,-6.09 -3.05,-22.52 10.65,-19.77l46.64 -46.57 -40.83 -40.77 -52.41 52.33c2.44,9.74 -10.97,18.86 -19.5,10.35 -8.53,-8.52 0.61,-22.52 11.58,-18.87l52.41 -52.33 -60.34 -59.64 0.01 0zm-118.04 225.09l6.2 0 0 25.82 31.35 0 0 -25.82 6.21 0 0 61.57 -6.21 0 0 -29.72 -31.35 0 0 29.71 -6.2 0 0 -61.56zm107.21 61.57l-6.4 0 0 -47.18 -40.62 47.18 -1.39 0 0 -61.57 6.16 0 0 48.01 40.87 -48.01 1.39 0 0 61.57 -0.01 0zm40.28 -61.57l28.76 61.57 -6.62 0 -9.69 -20.26 -26.57 0 -9.64 20.26 -6.87 0 29.13 -61.57 1.5 0zm-0.75 13.06l-10.6 22.31 21.08 0 -10.48 -22.31 0 0zm84.75 48.51l-45.68 0 0 -61.57 6.2 0 0 55.79 28.46 0 0 -55.79 6.2 0 0 55.79 10.57 0 0 14.99 -5.75 0 0 -9.21 0 0zm136.37 25.62l-106.64 105.88 35.95 35.9 32.3 -32.86 -18.9 -19.47c-1.82,-1.82 -2.43,-4.87 0.61,-7.91l20.11 -20.08c-3.65,-11.57 9.75,-20.69 18.28,-13.39 8.54,7.3 4.27,21.3 -9.14,20.69l-17.67 17.04 14.63 15.21 23.76 -23.73c-3.65,-12.17 10.37,-19.47 18.29,-13.39 10.96,9.13 0,23.74 -9.15,20.69l-51.79 51.73 43.26 43.21 54.24 -54.16c-2.44,-15.83 13.12,-18.57 19.5,-12.78 6.7,6.08 3.66,23.12 -10.97,20.08l-58.5 57.81c-2.44,2.44 -5.49,3.04 -7.92,0.61l-47.54 -47.47 -10.35 10.35c-2.44,2.43 -6.1,1.22 -7.93,-0.61l-43.87 -43.82c-1.22,-1.21 -1.83,-4.26 0,-6.08l115.78 -116.24c1.83,-1.82 5.49,-1.82 7.32,0l117 117.45c3.04,3.05 2.43,6.7 0,8.52l-49.97 49.9c2.43,14 -11.58,18.26 -18.89,12.18 -7.93,-6.09 -3.05,-22.52 10.65,-19.77l46.63 -46.57 -40.83 -40.77 -52.41 52.34c2.44,9.73 -10.97,18.86 -19.5,10.34 -8.53,-8.52 0.61,-22.52 11.58,-18.86l52.41 -52.34 -60.33 -59.63 0 0zm-118.05 225.08l6.21 0 0 25.83 31.35 0 0 -25.83 6.21 0 0 61.57 -6.21 0 0 -29.72 -31.35 0 0 29.72 -6.21 0 0 -61.57zm107.22 61.57l-6.41 0 0 -47.17 -40.61 47.17 -1.39 0 0 -61.57 6.16 0 0 48.01 40.87 -48.01 1.38 0 0 61.57zm40.28 -61.57l28.76 61.57 -6.63 0 -9.68 -20.26 -26.57 0 -9.64 20.26 -6.88 0 29.14 -61.57 1.5 0zm-0.75 13.06l-10.6 22.31 21.08 0 -10.48 -22.31 0 0zm84.75 48.51l-45.69 0 0 -61.57 6.21 0 0 55.8 28.46 0 0 -55.8 6.2 0 0 55.8 10.57 0 0 14.98 -5.75 0 0 -9.21z"/>
 </g>
 <g id="Слой_x0020_1_0">
  <metadata id="CorelCorpID_1Corel-Layer"/>
  <path id="niac_logo.svg" class="fil1" d="M183.92 114.37c12.73,0 23.05,10.32 23.05,23.05 0,12.72 -10.32,23.04 -23.05,23.04 -1.97,0 -3.87,-0.25 -5.72,-0.72l-32.86 32.89 28.98 28.99 44.69 -44.65c-0.91,-2.47 -1.41,-5.13 -1.41,-7.91 0,-12.73 10.32,-23.05 23.07,-23.05 12.73,0 23.05,10.32 23.05,23.05 0,12.75 -10.32,23.07 -23.05,23.07 -1.53,0 -3,-0.15 -4.44,-0.44l-98.21 98.22 82.52 82.51 104.96 -104.96c-0.37,-1.66 -0.59,-3.41 -0.59,-5.23 0,-12.72 10.32,-23.04 23.04,-23.04 12.76,0 23.08,10.32 23.08,23.04 0,12.73 -10.32,23.08 -23.08,23.08 -2.5,0 -4.91,-0.41 -7.16,-1.16l-112.25 112.25c-4.44,4.41 -11.57,4.41 -15.97,0l-90.53 -90.52 -18.63 18.64c-4.41,4.41 -11.57,4.41 -15.98,0l-84.45 -84.46c-4.41,-4.4 -4.41,-11.57 0,-15.97l220.78 -220.78c4.41,-4.41 11.57,-4.41 15.98,0l225.62 225.62c4.41,4.41 4.41,11.57 0,15.98l-97.12 97.12c0.76,2.25 1.16,4.69 1.16,7.19 0,12.73 -10.35,23.04 -23.07,23.04 -12.73,0 -23.05,-10.31 -23.05,-23.04 0,-12.73 10.32,-23.05 23.05,-23.05 1.81,0 3.56,0.19 5.22,0.6l89.86 -89.86 -78.73 -78.7 -99.81 99.77c0.54,1.91 0.78,3.91 0.78,5.97 0,12.73 -10.31,23.05 -23.04,23.05 -12.73,0 -23.04,-10.32 -23.04,-23.05 0,-12.72 10.31,-23.04 23.04,-23.04 2.25,0 4.41,0.31 6.47,0.91l99.62 -99.59 -114.94 -114.94 -204.83 204.8 68.47 68.45 62.95 -62.95 -36.99 -36.99c-4.41,-4.4 -4.41,-11.57 0,-15.97l40.52 -40.5c-0.66,-2.12 -1,-4.37 -1,-6.72 0,-12.73 10.32,-23.04 23.04,-23.04l0 0z"/>
 </g>
</svg>
